<?xml version="1.0" encoding="utf-8"?>
<!-- Generator: Adobe Illustrator 21.0.2, SVG Export Plug-In . SVG Version: 6.00 Build 0)  -->
<svg version="1.1" id="Layer_1" xmlns="http://www.w3.org/2000/svg" xmlns:xlink="http://www.w3.org/1999/xlink" x="0px" y="0px"
	 viewBox="0 0 60 60" style="enable-background:new 0 0 60 60;" xml:space="preserve">
<style type="text/css">
	.st0{fill:#FFFFFF;}
</style>
<g>
	<path class="st0" d="M29.8,0L4.2,14.8v29.6l25.7,14.8l25.7-14.8V14.8L29.8,0z M17,48.5c0.9-0.7,2-1.1,3.3-1.1
		c1.5,0,2.8,0.6,3.8,1.5c0.3,0.3,0.6,0.4,1,0.4c0.4,0,0.8-0.2,1.1-0.5c0.9-0.9,2.2-1.5,3.6-1.5c1.4,0,2.7,0.5,3.6,1.5
		c0.3,0.3,0.7,0.5,1.1,0.5c0.4,0,0.8-0.2,1.1-0.5c1-1,2.3-1.6,3.8-1.6c1.2,0,2.4,0.4,3.3,1.1l-12.9,7.5L17,48.5z M52.6,42.7
		l-7.2,4.2c0,0,0,0,0,0c-1.3-1.5-3.3-2.5-5.5-2.5c-1.6,0-3.1,0.5-4.3,1.3c-0.2,0.2-0.6,0.3-0.9,0.3c-0.4,0-0.7-0.1-1-0.4
		c-0.7-0.5-1.5-0.9-2.3-1.1V31.6h1.8c5.2,0,9.5-4.2,9.5-9.5c0-0.3-0.2-0.5-0.5-0.5h-2.8c-4.9,0-8.9,3.7-9.4,8.4h-0.1v-1.9
		c0-5.2-4.2-9.5-9.5-9.5c-0.3,0-0.5,0.2-0.5,0.5v2.8c0,4.9,3.7,9,8.5,9.4v13.2c-0.8,0.2-1.6,0.6-2.3,1.1c-0.3,0.2-0.5,0.3-0.9,0.3
		c-0.3,0-0.6-0.1-0.9-0.3c-1.2-0.8-2.7-1.3-4.2-1.3c-2.2,0-4.2,1-5.6,2.5c0,0,0,0,0,0.1l-7.3-4.3v-26L29.8,3.3l22.7,13.3V42.7z"/>
</g>
</svg>
